<!--?xml version="1.0" standalone="no"?-->
<svg version="1.0" xmlns="http://www.w3.org/2000/svg" width="300.000000pt" height="163.000000pt" viewBox="0 0 300.000000 163.000000" preserveAspectRatio="xMidYMid meet">
<g transform="translate(0.000000,163.000000) scale(0.100000,-0.100000)" fill="#070707" stroke="none">
<path class="node" id="node1" d="M1315 1623 c-436 -55 -605 -99 -840 -218 -162 -82 -295 -191 -380 -310 -51 -72 -95 -201 -95 -281 0 -60 37 -186 73 -244 89 -147 244 -275 442 -365 125 -57 136 -61 205 -83 439 -139 954 -156 1395 -46 317 80 557 204 715 371 85 90 127 162 154 269 23 88 20 141 -13 238 -92 271 -395 483 -856 599 -227 58 -626 92 -800 70z m355 -57 c285 -11 594 -87 830 -206 94 -47 115 -61 215 -142 172 -137 254 -329 212 -495 -24 -94 -53 -146 -126 -230 -210 -242 -655 -407 -1167 -432 -749 -37 -1413 228 -1550 618 -116 329 205 667 776 816 190 50 490 87 635 78 22 -1 101 -5 175 -7z"/>
<path class="node" id="node2" d="M1346 1478 c-2 -13 -9 -74 -15 -136 -11 -123 -30 -177 -80 -234 -43 -49 -78 -62 -160 -56 -49 4 -82 13 -120 34 -127 69 -142 173 -44 305 23 33 43 61 43 63 0 16 -324 -96 -425 -147 -165 -83 -325 -222 -380 -332 -27 -53 -30 -70 -30 -151 0 -85 2 -95 39 -169 49 -98 167 -222 272 -284 83 -49 254 -125 303 -136 l35 -7 -42 47 c-90 102 -135 251 -98 322 27 53 61 73 127 73 71 0 145 -30 227 -93 31 -23 63 -46 70 -51 9 -5 27 8 56 38 49 53 76 58 127 23 47 -31 95 -99 175 -243 38 -68 71 -120 75 -116 3 4 21 34 39 67 104 193 161 275 210 300 48 25 70 18 118 -32 31 -32 49 -43 57 -37 7 5 34 26 61 46 77 59 151 91 219 95 71 4 100 -8 133 -57 48 -71 14 -205 -82 -324 l-48 -58 34 7 c49 11 221 88 297 134 133 81 213 163 278 286 37 68 38 74 38 170 0 95 -2 103 -34 159 -74 128 -221 251 -404 336 -97 45 -294 114 -356 125 l-44 7 35 -43 c71 -88 91 -159 64 -224 -22 -53 -42 -73 -101 -102 -52 -27 -151 -41 -199 -29 -41 10 -92 62 -121 123 -21 46 -29 81 -37 182 -6 70 -14 130 -19 135 -4 5 -18 -12 -30 -38 l-23 -46 -91 0 -92 0 -18 40 c-23 50 -33 58 -39 28z"/>
</g>
<g transform="translate(0.000000,163.000000) scale(0.100000,-0.100000)" fill="#A1A1A1" stroke="none">





</g>
</svg>